<svg width="1651" height="1118" viewBox="0 0 1651 1118" fill="none" xmlns="http://www.w3.org/2000/svg">
<path d="M697 164H447V414H697V164Z" fill="#D70033"/>
<path d="M637.143 287.931C632.86 286.513 626.904 285.022 624.503 284.243C622.895 283.695 622.182 282.692 622.182 281.395C622.182 279.643 624.322 278.544 626.889 278.42C631.195 278.547 632.397 280.887 632.637 282.675H647.403C647.53 272.566 639.065 265.729 626.889 265.729C617.91 265.729 611.771 269.145 608.796 274.096C605.452 268.961 598.867 265.729 590.643 265.729C582.004 265.729 576.009 269.065 572.924 273.723C569.387 269.146 563.523 266.237 556.459 266.237H532.532V273.96C529.182 268.858 522.669 265.729 514.485 265.729C501.898 265.742 495.031 272.666 494.389 280.683C494.389 285.677 496.71 290.077 500.474 293.294C502.624 295.149 505.252 296.596 508.194 297.559C512.885 299.227 516.492 300.351 517.739 300.889C520.156 301.909 521.663 302.554 521.663 304.766C521.663 307.186 518.795 308.209 515.993 308.309C512.119 308.263 508.194 306.35 508.264 302.361L492.704 302.34C493.53 312.649 503.694 320.612 515.713 320.839C522.212 320.759 528.393 318.914 532.522 315.117L532.532 319.99H547.857V305.642L547.868 303.072L556.87 303.092C564.794 302.962 571.139 298.978 574.342 293.294C574.582 292.852 574.816 292.39 575.02 291.936C575.485 292.411 575.944 292.872 576.451 293.294C578.654 295.166 581.352 296.576 584.364 297.559C589.061 299.227 592.659 300.351 593.916 300.889C596.333 301.909 597.824 302.554 597.824 304.766C597.824 307.186 594.973 308.209 592.158 308.309C588.283 308.263 584.364 306.35 584.439 302.361L568.869 302.34C569.695 312.649 579.878 320.612 591.883 320.839C599.175 320.759 605.897 318.64 610.254 313.404C614.53 317.851 619.653 320.706 626.773 320.839C638.117 320.705 649.811 315.23 650.005 303.193C649.982 299.385 648.918 295.985 646.591 293.294C644.498 290.869 641.409 289.021 637.143 287.931ZM532.532 286.346L532.522 291.689C530.563 290.071 527.991 288.77 524.742 287.931C520.462 286.513 514.495 285.022 512.091 284.243C510.48 283.695 509.762 282.692 509.762 281.395C509.762 279.643 511.925 278.544 514.485 278.42C518.791 278.547 519.978 280.887 520.229 282.675H532.531V286.346H532.532ZM556.051 290.408H547.857V278.921H556.051C559.154 278.921 561.651 281.505 561.651 284.674C561.651 287.847 559.154 290.408 556.051 290.408ZM628.4 308.309C624.529 308.263 620.595 306.35 620.665 302.361L613.725 302.34C613.541 298.88 612.49 295.791 610.334 293.294C608.255 290.869 605.176 289.014 600.927 287.931C596.625 286.513 590.68 285.022 588.267 284.243C586.658 283.695 585.93 282.692 585.93 281.395C585.93 279.643 588.096 278.544 590.667 278.42C594.96 278.547 596.156 280.887 596.387 282.675H606.814C607.359 286.848 609.558 290.512 612.842 293.294C615.012 295.149 617.66 296.596 620.595 297.559C625.295 299.227 628.899 300.351 630.143 300.889C632.571 301.909 634.074 302.554 634.074 304.766C634.074 307.186 631.202 308.209 628.4 308.309Z" fill="white"/>
<path d="M651.73 274.9C649.614 274.9 647.908 276.601 647.908 278.701C647.908 280.82 649.613 282.522 651.73 282.522C653.823 282.522 655.534 280.82 655.534 278.701C655.534 276.601 653.823 274.9 651.73 274.9ZM651.73 282.067C649.881 282.067 648.369 280.566 648.369 278.701C648.369 276.846 649.881 275.357 651.73 275.357C653.579 275.357 655.076 276.845 655.076 278.701C655.076 280.566 653.578 282.067 651.73 282.067Z" fill="white"/>
<path d="M653.686 277.707C653.686 277.336 653.522 276.959 653.214 276.785C652.89 276.595 652.523 276.571 652.164 276.571H650.309V280.837H650.834V278.871H651.786L653 280.837H653.628L652.335 278.871C653.09 278.838 653.686 278.533 653.686 277.707ZM651.622 278.46H650.834V276.949H652.051C652.575 276.949 653.165 277.029 653.165 277.688C653.164 278.56 652.224 278.46 651.622 278.46Z" fill="white"/>
<g clip-path="url(#clip0_2_67)">
<path d="M1130.34 537H959.797C953.911 537 949.14 541.771 949.14 547.657V595.14L1047.98 624.209L1141 595.14V547.657C1141 541.771 1136.23 537 1130.34 537Z" fill="#41A5EE"/>
<path d="M1141 595.14H949.14V653.279L1047.98 670.721L1141 653.279V595.14Z" fill="#2B7CD3"/>
<path d="M949.14 653.279V711.419L1042.16 723.047L1141 711.419V653.279H949.14Z" fill="#185ABD"/>
<path d="M959.797 769.558H1130.34C1136.23 769.558 1141 764.787 1141 758.901V711.419H949.14V758.901C949.14 764.787 953.911 769.558 959.797 769.558Z" fill="#103F91"/>
<path opacity="0.1" d="M1019.88 583.512H949.14V728.86H1019.88C1025.76 728.841 1030.52 724.081 1030.53 718.203V594.169C1030.52 588.291 1025.76 583.531 1019.88 583.512Z" fill="black"/>
<path opacity="0.2" d="M1014.06 589.326H949.14V734.674H1014.06C1019.94 734.655 1024.7 729.895 1024.72 724.017V599.983C1024.7 594.105 1019.94 589.345 1014.06 589.326Z" fill="black"/>
<path opacity="0.2" d="M1014.06 589.326H949.14V723.047H1014.06C1019.94 723.027 1024.7 718.267 1024.72 712.39V599.983C1024.7 594.105 1019.94 589.345 1014.06 589.326Z" fill="black"/>
<path opacity="0.2" d="M1008.25 589.326H949.14V723.047H1008.25C1014.13 723.027 1018.89 718.267 1018.91 712.39V599.983C1018.89 594.105 1014.13 589.345 1008.25 589.326Z" fill="black"/>
<path d="M901.657 589.326H1008.25C1014.14 589.326 1018.91 594.097 1018.91 599.983V706.576C1018.91 712.461 1014.14 717.233 1008.25 717.233H901.657C895.771 717.233 891 712.461 891 706.576V599.983C891 594.097 895.771 589.326 901.657 589.326Z" fill="url(#paint0_linear_2_67)"/>
<path d="M934.733 671.058C934.942 672.704 935.081 674.134 935.145 675.361H935.39C935.483 674.198 935.676 672.797 935.971 671.157C936.266 669.517 936.531 668.132 936.767 667L947.977 618.64H962.471L974.099 666.273C974.774 669.235 975.258 672.238 975.547 675.262H975.738C975.955 672.332 976.359 669.419 976.948 666.541L986.221 618.616H999.413L983.122 687.919H967.709L956.663 642.023C956.343 640.704 955.977 638.977 955.576 636.855C955.174 634.732 954.925 633.18 954.826 632.203H954.634C954.506 633.331 954.256 635.006 953.884 637.227C953.512 639.448 953.213 641.091 952.988 642.157L942.605 687.907H926.93L910.552 618.639H923.982L934.081 667.099C934.308 668.093 934.523 669.419 934.733 671.058Z" fill="white"/>
</g>
<g clip-path="url(#clip1_2_67)">
<path d="M1557.98 995.465L1459.14 978.023V1106.9C1459.14 1112.79 1463.91 1117.56 1469.8 1117.56H1640.34C1646.23 1117.56 1651 1112.79 1651 1106.9V1059.42L1557.98 995.465Z" fill="#185C37"/>
<path d="M1557.98 885H1469.8C1463.91 885 1459.14 889.771 1459.14 895.657V943.14L1557.98 1001.28L1610.3 1018.72L1651 1001.28V943.14L1557.98 885Z" fill="#21A366"/>
<path d="M1459.14 943.14H1557.98V1001.28H1459.14V943.14Z" fill="#107C41"/>
<path opacity="0.1" d="M1529.88 931.512H1459.14V1076.86H1529.88C1535.76 1076.84 1540.52 1072.08 1540.53 1066.2V942.169C1540.52 936.291 1535.76 931.531 1529.88 931.512Z" fill="black"/>
<path opacity="0.2" d="M1524.06 937.326H1459.14V1082.67H1524.06C1529.94 1082.66 1534.7 1077.9 1534.72 1072.02V947.983C1534.7 942.105 1529.94 937.345 1524.06 937.326Z" fill="black"/>
<path opacity="0.2" d="M1524.06 937.326H1459.14V1071.05H1524.06C1529.94 1071.03 1534.7 1066.27 1534.72 1060.39V947.983C1534.7 942.105 1529.94 937.345 1524.06 937.326Z" fill="black"/>
<path opacity="0.2" d="M1518.25 937.326H1459.14V1071.05H1518.25C1524.13 1071.03 1528.89 1066.27 1528.91 1060.39V947.983C1528.89 942.105 1524.13 937.345 1518.25 937.326Z" fill="black"/>
<path d="M1411.66 937.326H1518.25C1524.14 937.326 1528.91 942.097 1528.91 947.983V1054.58C1528.91 1060.46 1524.14 1065.23 1518.25 1065.23H1411.66C1405.77 1065.23 1401 1060.46 1401 1054.58V947.983C1401 942.097 1405.77 937.326 1411.66 937.326Z" fill="url(#paint1_linear_2_67)"/>
<path d="M1434.01 1035.92L1456.42 1001.18L1435.88 966.634H1452.41L1463.62 988.727C1464.65 990.826 1465.36 992.384 1465.74 993.413H1465.89C1466.63 991.738 1467.4 990.112 1468.22 988.535L1480.2 966.645H1495.37L1474.3 1000.99L1495.9 1035.92H1479.76L1466.81 1011.67C1466.2 1010.64 1465.69 1009.55 1465.27 1008.43H1465.08C1464.7 1009.53 1464.19 1010.58 1463.58 1011.57L1450.24 1035.92H1434.01Z" fill="white"/>
<path d="M1640.34 885H1557.98V943.14H1651V895.657C1651 889.771 1646.23 885 1640.34 885Z" fill="#33C481"/>
<path d="M1557.98 1001.28H1651V1059.42H1557.98V1001.28Z" fill="#107C41"/>
</g>
<g clip-path="url(#clip2_2_67)">
<path d="M78.4636 38.6575L81.3143 35.2671C83.8951 37.502 86.4691 38.7682 89.8179 38.7682C92.7448 38.7682 94.5922 37.4189 94.5922 35.3778V35.3017C94.5922 33.3781 93.5128 32.3403 88.5102 31.1502C82.7742 29.7663 79.5153 28.0711 79.5153 23.1032V23.027C79.5153 18.4119 83.3623 15.2153 88.7178 15.2153C92.2767 15.1439 95.744 16.3463 98.4946 18.6057L95.9553 22.2244C93.5335 20.4185 91.1118 19.4567 88.6417 19.4567C85.874 19.4567 84.2549 20.8821 84.2549 22.6534V22.7295C84.2549 24.8053 85.4865 25.7324 90.6413 26.9641C96.3358 28.3479 99.3041 30.4237 99.3041 34.8519V34.928C99.3041 39.9721 95.3394 42.9751 89.6796 42.9751C85.533 42.9867 81.532 41.4465 78.4636 38.6575Z" fill="#00BF6F"/>
<path d="M102.432 35.1979V22.2659H107.088V33.8141C107.088 36.9692 108.666 38.782 111.44 38.782C114.215 38.782 116.021 36.8931 116.021 33.731V22.2659H120.678V42.5876H116.021V40.5118C115.213 41.3739 114.225 42.0467 113.127 42.4821C112.029 42.9176 110.848 43.1048 109.669 43.0304C105.089 43.0096 102.432 39.9099 102.432 35.1979Z" fill="#00BF6F"/>
<path d="M125.659 22.2659H130.316V25.6563C131.582 22.6119 133.935 21.7263 137.512 21.8854V26.0369H137.242C133.16 26.0369 130.323 28.7631 130.323 34.8796V42.5876H125.666L125.659 22.2659Z" fill="#00BF6F"/>
<path d="M139.172 22.2659H144.175L149.641 36.4087L155.177 22.2659H160.061L151.758 42.7467H147.565L139.172 22.2659Z" fill="#00BF6F"/>
<path d="M160.068 32.4994V32.4233C160.068 26.6112 164.22 21.8369 169.997 21.8369C176.467 21.8369 179.74 26.9156 179.74 32.7693C179.74 33.1913 179.698 33.6134 179.664 34.077H164.725C165.223 37.3844 167.576 39.2387 170.579 39.2387C171.62 39.2474 172.652 39.0354 173.606 38.6169C174.56 38.1983 175.415 37.5825 176.114 36.8101L178.813 39.2179C177.815 40.4491 176.547 41.4331 175.107 42.0933C173.666 42.7534 172.093 43.0718 170.509 43.0235C164.614 43.0442 160.068 38.7751 160.068 32.4994ZM175.118 30.9979C174.813 27.995 173.042 25.6494 169.963 25.6494C167.112 25.6494 165.119 27.8428 164.69 30.9979H175.118Z" fill="#00BF6F"/>
<path d="M204.42 15.6443H209.464L217.664 29.3858L225.863 15.6443H230.879V42.5876H226.174V23.2623L217.664 36.9692H217.512L209.084 23.3384V42.5876H204.427L204.42 15.6443Z" fill="#00BF6F"/>
<path d="M234.242 32.5409V32.4648C234.232 29.5911 235.364 26.831 237.389 24.7918C239.414 22.7527 242.166 21.6014 245.039 21.5913C247.913 21.5812 250.673 22.7131 252.712 24.738C254.752 26.7629 255.903 29.515 255.913 32.3887V32.4648C255.908 33.8794 255.62 35.2787 255.067 36.5808C254.515 37.8828 253.707 39.0614 252.693 40.0474C251.679 41.0333 250.478 41.8069 249.16 42.3227C247.843 42.8385 246.436 43.0862 245.022 43.0512C243.619 43.0872 242.224 42.842 240.917 42.3299C239.611 41.8179 238.42 41.0494 237.415 40.0698C236.41 39.0903 235.612 37.9194 235.067 36.6263C234.522 35.3333 234.242 33.9442 234.242 32.5409V32.5409ZM251.256 32.5409V32.4648C251.256 28.8876 248.675 25.9193 245.029 25.9193C241.383 25.9193 238.906 28.8461 238.906 32.3887V32.4648C238.906 36.0074 241.486 39.0104 245.133 39.0104C248.869 39.0104 251.256 36.042 251.256 32.5409Z" fill="#00BF6F"/>
<path d="M281.964 14.4888H286.62V31.2678L295.048 22.2729H300.708L292.626 30.5759L300.978 42.6222H295.588L289.464 33.8486L286.613 36.8101V42.6222H281.957L281.964 14.4888Z" fill="#00BF6F"/>
<path d="M300.604 32.4994V32.4233C300.604 26.6112 304.755 21.8369 310.533 21.8369C317.002 21.8369 320.275 26.9156 320.275 32.7693C320.275 33.1913 320.234 33.6134 320.199 34.077H305.261C305.759 37.3844 308.111 39.2387 311.114 39.2387C312.156 39.2478 313.188 39.0361 314.142 38.6175C315.096 38.1989 315.951 37.5829 316.65 36.8101L319.348 39.2179C318.351 40.4491 317.083 41.4331 315.642 42.0933C314.202 42.7534 312.629 43.0718 311.045 43.0235C305.143 43.0442 300.604 38.7751 300.604 32.4994ZM315.653 30.9979C315.349 27.995 313.577 25.6494 310.498 25.6494C307.648 25.6494 305.655 27.8428 305.226 30.9979H315.653Z" fill="#00BF6F"/>
<path d="M196.097 22.2659L190.471 36.1251L184.888 22.2659H180.037L188.043 42.1171L183.864 52.4128H188.714L200.947 22.2659H196.097Z" fill="#00BF6F"/>
<path d="M346.658 22.6119C346.174 22.612 345.697 22.7358 345.274 22.9717C344.832 23.2078 344.467 23.5656 344.222 24.0026C343.985 24.4259 343.857 24.9014 343.849 25.3865C343.85 25.8716 343.976 26.3483 344.216 26.7703C344.457 27.2055 344.817 27.563 345.253 27.8013C345.674 28.0442 346.151 28.1721 346.637 28.1721C347.123 28.1721 347.6 28.0442 348.021 27.8013C348.456 27.5623 348.813 27.2047 349.052 26.7703C349.29 26.348 349.416 25.8714 349.416 25.3865C349.416 24.9016 349.29 24.4249 349.052 24.0026C348.812 23.5641 348.449 23.2057 348.007 22.9717C347.584 22.7373 347.108 22.6135 346.623 22.6119H346.658ZM346.623 22.0583C347.198 22.0623 347.762 22.2123 348.263 22.4943C348.794 22.7711 349.23 23.1999 349.516 23.7259C349.81 24.2324 349.965 24.8077 349.965 25.3934C349.965 25.9791 349.81 26.5544 349.516 27.0609C349.228 27.5824 348.799 28.0118 348.277 28.2995C347.771 28.5857 347.198 28.7359 346.617 28.7354C346.033 28.7331 345.459 28.5831 344.949 28.2995C344.427 28.0121 343.998 27.5826 343.71 27.0609C343.426 26.556 343.276 25.9867 343.275 25.4072C343.273 24.8191 343.428 24.2411 343.724 23.7328C344.01 23.2091 344.443 22.7808 344.97 22.5012C345.474 22.2209 346.04 22.071 346.617 22.0653" fill="#00BF6F"/>
<path d="M345.24 23.5529H346.907C347.302 23.5311 347.69 23.6653 347.987 23.9265C348.193 24.1445 348.305 24.4356 348.298 24.7361C348.307 24.9991 348.223 25.2569 348.061 25.4644C347.899 25.6719 347.67 25.8157 347.412 25.8708L348.422 27.2546H347.641L346.72 25.9469H345.897V27.2546H345.205L345.24 23.5529ZM346.859 25.3796C347.329 25.3796 347.627 25.1305 347.627 24.7568C347.627 24.3555 347.336 24.1341 346.852 24.1341H345.897V25.3796H346.859Z" fill="#00BF6F"/>
<path d="M336.632 22.2659L331.007 36.1251L325.416 22.2659H320.573L328.578 42.1171L324.399 52.4128H329.249L341.483 22.2659H336.632Z" fill="#00BF6F"/>
<path d="M277.238 29.6556V42.5876H272.581V31.0395C272.56 27.8843 271.011 26.0715 268.243 26.0715C265.475 26.0715 263.662 27.9604 263.662 31.1156V42.5876H258.971V22.2659H263.628V24.3417C264.435 23.4796 265.424 22.8068 266.522 22.3714C267.62 21.936 268.801 21.7487 269.98 21.8231C274.56 21.837 277.238 24.916 277.238 29.6556Z" fill="#00BF6F"/>
<path d="M60.3145 27.2201C59.6637 27.2234 59.0156 27.3047 58.3841 27.4622C57.2067 22.83 54.7214 18.6342 51.2249 15.3757C47.7283 12.1171 43.3681 9.93333 38.6644 9.08488C38.2354 9.00877 37.8479 8.95342 37.412 8.89806C37.4812 6.54554 37.5919 3.8263 41.0585 1.37691L40.5118 -0.00692749C40.5118 -0.00692749 33.7656 2.06883 32.9838 7.86019C32.6447 6.28953 29.5242 4.32448 27.9466 3.95085L27.1716 5.20322C27.8607 5.61925 28.4485 6.18341 28.8925 6.8548C29.3365 7.52618 29.6256 8.28795 29.7387 9.08488V9.08488C25.0346 9.9316 20.6735 12.1138 17.1757 15.3712C13.6779 18.6285 11.1911 22.8234 10.0121 27.4553C8.77681 27.1465 7.48606 27.134 6.24503 27.4187C5.00399 27.7034 3.8478 28.2774 2.87067 29.0937C1.89354 29.9101 1.12312 30.9458 0.62222 32.1164C0.121315 33.287 -0.0959076 34.5594 -0.0117426 35.8299C0.0724223 37.1004 0.455594 38.333 1.10654 39.4273C1.75749 40.5216 2.65779 41.4466 3.73407 42.1269C4.81035 42.8073 6.03215 43.2237 7.29989 43.3422C8.56764 43.4607 9.84545 43.278 11.0292 42.809C11.7178 44.5303 12.5974 46.1689 13.6516 47.6939L20.3563 43.1757L20.3009 43.0996C18.4299 40.4632 17.3737 37.3356 17.2634 34.1047C17.0627 30.4236 17.9553 26.7634 20.3147 24.6115C25.1582 20.46 30.4444 22.3628 33.7518 26.3206H34.6444C37.9517 22.3628 43.2311 20.4808 48.0814 24.6115C50.4339 26.7634 51.3334 30.4236 51.1328 34.1047C51.0224 37.3356 49.9663 40.4632 48.0953 43.0996L48.0399 43.1757L54.7446 47.6939C55.7988 46.1689 56.6784 44.5303 57.367 42.809C58.472 43.2407 59.6586 43.4235 60.8423 43.3446C62.026 43.2657 63.1778 42.9269 64.2158 42.3523C65.2537 41.7778 66.1523 40.9815 66.8476 40.0203C67.5429 39.059 68.0179 37.9564 68.2387 36.7908C68.4595 35.6251 68.4207 34.4252 68.1252 33.2762C67.8296 32.1273 67.2845 31.0576 66.5287 30.1432C65.7728 29.2288 64.8247 28.4922 63.7519 27.9858C62.6791 27.4793 61.5078 27.2156 60.3215 27.2131L60.3145 27.2201ZM7.92248 37.6819C7.3125 37.649 6.73834 37.3835 6.31818 36.9401C5.89801 36.4967 5.66383 35.9091 5.66383 35.2982C5.66383 34.6874 5.89801 34.0997 6.31818 33.6563C6.73834 33.2129 7.3125 32.9474 7.92248 32.9146C8.39895 32.9174 8.8638 33.0619 9.25788 33.3297C9.27848 34.5811 9.36393 35.8305 9.51389 37.073C9.07639 37.4648 8.50979 37.6816 7.92248 37.6819V37.6819ZM60.4737 37.6819C59.8864 37.6816 59.3198 37.4648 58.8823 37.073C59.0322 35.8305 59.1177 34.5811 59.1383 33.3297C59.4968 33.0867 59.9148 32.9462 60.3473 32.9231C60.7797 32.9001 61.2103 32.9956 61.5926 33.1992C61.9748 33.4027 62.2943 33.7068 62.5166 34.0785C62.7388 34.4502 62.8554 34.8755 62.8539 35.3086C62.853 35.6212 62.7905 35.9305 62.6701 36.2189C62.5496 36.5074 62.3735 36.7692 62.1518 36.9896C61.9302 37.21 61.6673 37.3846 61.3781 37.5033C61.089 37.6221 60.7793 37.6828 60.4668 37.6819H60.4737Z" fill="#00BF6F"/>
</g>
<path d="M416.736 305.323C418.571 303.26 418.386 300.099 416.323 298.264L382.7 268.356C380.637 266.521 377.476 266.706 375.641 268.769C373.806 270.832 373.991 273.993 376.054 275.828L405.941 302.413L379.356 332.3C377.521 334.363 377.706 337.524 379.769 339.359C381.832 341.194 384.993 341.009 386.828 338.946L416.736 305.323ZM114.21 91.4346C142.269 185.117 174.39 241.983 221.478 273.858C268.546 305.72 329.529 311.89 413.292 306.991L412.708 297.009C329.269 301.888 271.228 295.459 227.084 265.577C182.959 235.708 151.681 181.686 123.79 88.5654L114.21 91.4346Z" fill="#727272"/>
<path d="M854.022 670.323C855.857 668.26 855.672 665.099 853.609 663.264L819.986 633.356C817.923 631.521 814.762 631.706 812.927 633.769C811.092 635.832 811.276 638.993 813.34 640.828L843.227 667.413L816.642 697.3C814.807 699.363 814.991 702.524 817.055 704.359C819.118 706.194 822.278 706.009 824.114 703.946L854.022 670.323ZM551.496 456.435C579.555 550.117 611.676 606.983 658.764 638.858C705.832 670.72 766.815 676.89 850.578 671.991L849.994 662.009C766.555 666.888 708.513 660.459 664.369 630.577C620.245 600.708 588.966 546.686 561.076 453.565L551.496 456.435Z" fill="#727272"/>
<path d="M1363.02 1032.32C1364.86 1030.26 1364.67 1027.1 1362.61 1025.26L1328.99 995.356C1326.92 993.521 1323.76 993.706 1321.93 995.769C1320.09 997.832 1320.28 1000.99 1322.34 1002.83L1352.23 1029.41L1325.64 1059.3C1323.81 1061.36 1323.99 1064.52 1326.05 1066.36C1328.12 1068.19 1331.28 1068.01 1333.11 1065.95L1363.02 1032.32ZM1060.5 818.435C1088.56 912.117 1120.68 968.983 1167.76 1000.86C1214.83 1032.72 1275.82 1038.89 1359.58 1033.99L1358.99 1024.01C1275.56 1028.89 1217.51 1022.46 1173.37 992.577C1129.25 962.708 1097.97 908.686 1070.08 815.565L1060.5 818.435Z" fill="#727272"/>
<defs>
<linearGradient id="paint0_linear_2_67" x1="913.22" y1="580.998" x2="996.687" y2="725.56" gradientUnits="userSpaceOnUse">
<stop stop-color="#2368C4"/>
<stop offset="0.5" stop-color="#1A5DBE"/>
<stop offset="1" stop-color="#1146AC"/>
</linearGradient>
<linearGradient id="paint1_linear_2_67" x1="1423.22" y1="928.998" x2="1506.69" y2="1073.56" gradientUnits="userSpaceOnUse">
<stop stop-color="#18884F"/>
<stop offset="0.5" stop-color="#117E43"/>
<stop offset="1" stop-color="#0B6631"/>
</linearGradient>
<clipPath id="clip0_2_67">
<rect width="250" height="232.558" fill="white" transform="translate(891 537)"/>
</clipPath>
<clipPath id="clip1_2_67">
<rect width="250" height="232.558" fill="white" transform="translate(1401 885)"/>
</clipPath>
<clipPath id="clip2_2_67">
<rect width="350" height="52.4197" fill="white"/>
</clipPath>
</defs>
</svg>
